<?xml version="1.0" encoding="utf-8"?>
<!-- Generator: Adobe Illustrator 16.0.0, SVG Export Plug-In . SVG Version: 6.00 Build 0)  -->
<!DOCTYPE svg PUBLIC "-//W3C//DTD SVG 1.1//EN" "http://www.w3.org/Graphics/SVG/1.1/DTD/svg11.dtd">
<svg version="1.1" id="Layer_1" xmlns="http://www.w3.org/2000/svg" xmlns:xlink="http://www.w3.org/1999/xlink" x="0px" y="0px"
	 width="179.396px" height="56.667px" viewBox="0 0 179.396 56.667" enable-background="new 0 0 179.396 56.667"
	 xml:space="preserve">
<g>
	<path fill-rule="evenodd" clip-rule="evenodd" fill="#007BC2" d="M77.076,32.105v-0.538h1.553V17.78h-1.553v-0.538h0.947
		c0.923,0,1.771-0.036,2.553-0.106c0.782-0.065,1.512-0.178,2.188-0.325v2.98c0.506-0.981,1.141-1.727,1.906-2.229
		c0.765-0.503,1.647-0.751,2.647-0.751c1.523,0,2.594,0.473,3.206,1.413c0.605,0.94,0.911,2.726,0.911,5.357v7.987h1.412v0.538
		h-7.011v-0.538h1.312V21.073c0-0.905-0.141-1.561-0.423-1.969c-0.283-0.408-0.735-0.615-1.353-0.615
		c-0.876,0-1.494,0.373-1.859,1.118c-0.359,0.745-0.541,2.134-0.541,4.168v7.792h1.312v0.538H77.076z"/>
	<path fill-rule="evenodd" clip-rule="evenodd" fill="#007BC2" d="M97.292,26.01c0,2.158,0.159,3.6,0.477,4.328
		c0.312,0.727,0.889,1.094,1.712,1.094c0.899,0,1.594-0.532,2.094-1.603c0.5-1.069,0.753-2.565,0.753-4.493
		c0-2.737-0.224-4.653-0.67-5.741c-0.453-1.094-1.218-1.638-2.295-1.638c-0.794,0-1.335,0.438-1.629,1.307
		C97.44,20.139,97.292,22.386,97.292,26.01L97.292,26.01z M102.257,32.105v-2.406c-0.347,0.945-0.823,1.644-1.441,2.087
		c-0.611,0.443-1.405,0.669-2.37,0.669c-1.606,0-2.959-0.751-4.053-2.259c-1.088-1.508-1.636-3.412-1.636-5.712
		c0-2.123,0.564-3.92,1.7-5.392c1.129-1.472,2.494-2.211,4.094-2.211c0.93,0,1.718,0.266,2.37,0.804
		c0.647,0.538,1.183,1.36,1.595,2.472V8.981h-1.618V8.444h1.512c1.071,0,1.906-0.042,2.506-0.13
		c0.606-0.088,1.153-0.225,1.647-0.408v23.662h1.553v0.538H102.257z"/>
	<path fill-rule="evenodd" clip-rule="evenodd" fill="#007BC2" d="M115.696,23.409v-2.478c0-1.419-0.142-2.371-0.424-2.856
		s-0.794-0.727-1.541-0.727c-0.7,0-1.188,0.26-1.465,0.78s-0.411,1.555-0.411,3.116v2.164H115.696L115.696,23.409z M120.107,23.946
		h-8.252v2.513c0,1.869,0.259,3.222,0.775,4.049c0.519,0.834,1.354,1.248,2.513,1.248c1.129,0,2.117-0.449,2.977-1.348
		c0.852-0.905,1.458-2.134,1.816-3.689h0.5c-0.323,1.833-1.006,3.263-2.041,4.286c-1.041,1.023-2.335,1.531-3.888,1.531
		c-2.07,0-3.776-0.745-5.117-2.235c-1.348-1.489-2.018-3.381-2.018-5.681c0-2.134,0.658-3.973,1.982-5.505
		c1.323-1.537,2.894-2.306,4.723-2.306c1.688,0,3.1,0.668,4.247,1.999C119.466,20.145,120.06,21.854,120.107,23.946z"/>
	<path fill-rule="evenodd" clip-rule="evenodd" fill="#007BC2" d="M129.694,23.982h-0.259c-1.712,0-2.842,0.243-3.395,0.722
		c-0.547,0.479-0.823,1.466-0.823,2.968c0,1.407,0.159,2.424,0.482,3.038c0.323,0.621,0.835,0.929,1.547,0.929
		c0.518,0,0.977-0.154,1.37-0.461c0.395-0.302,0.753-0.774,1.077-1.408V23.982L129.694,23.982z M129.864,30.515
		c-0.423,0.669-0.94,1.171-1.559,1.515c-0.611,0.337-1.317,0.508-2.105,0.508c-1.653,0-2.924-0.366-3.8-1.105
		c-0.877-0.739-1.317-1.792-1.317-3.157c0-1.626,0.711-2.838,2.135-3.636c1.424-0.799,3.582-1.195,6.477-1.195v-2.128
		c0-1.656-0.188-2.72-0.56-3.205c-0.376-0.485-1.059-0.728-2.059-0.728c-0.629,0-1.182,0.119-1.652,0.355
		c-0.471,0.237-0.706,0.485-0.706,0.751c0,0,0.241,0.213,0.724,0.632c0.482,0.42,0.724,0.946,0.724,1.567
		c0,0.615-0.171,1.088-0.506,1.431c-0.342,0.337-0.824,0.509-1.441,0.509c-0.624,0-1.111-0.189-1.465-0.562
		c-0.358-0.378-0.535-0.899-0.535-1.567c0-1.1,0.465-1.986,1.395-2.667c0.929-0.68,2.182-1.023,3.758-1.023
		c2.077,0,3.618,0.443,4.612,1.336c0.994,0.887,1.488,2.265,1.488,4.133v6.173c0,0.957,0.059,1.566,0.183,1.82
		c0.117,0.255,0.341,0.379,0.664,0.379c0.135,0,0.271-0.035,0.395-0.106c0.129-0.065,0.265-0.178,0.417-0.325l0.43,0.325
		c-0.383,0.662-0.812,1.146-1.294,1.473c-0.482,0.324-1.029,0.484-1.636,0.484c-0.693,0-1.271-0.166-1.729-0.503
		C130.441,31.668,130.093,31.171,129.864,30.515z"/>
	<path fill-rule="evenodd" clip-rule="evenodd" fill="#007BC2" d="M140.838,32.537h-1.101l-5.6-14.757h-1.447v-0.538h7.047v0.538
		h-1.482l3.671,9.786l2.446-6.876c0.112-0.379,0.194-0.674,0.241-0.881c0.048-0.207,0.071-0.402,0.071-0.573
		c0-0.497-0.165-0.857-0.494-1.088c-0.324-0.236-0.847-0.36-1.559-0.384v-0.521h5.188v0.538c-0.612,0-1.159,0.284-1.646,0.852
		c-0.488,0.562-0.947,1.472-1.389,2.72L140.838,32.537z"/>
	<path fill-rule="evenodd" clip-rule="evenodd" fill="#007BC2" d="M150.045,27.565c0,1.938,0.153,3.163,0.465,3.671
		c0.312,0.509,0.883,0.763,1.724,0.763s1.412-0.26,1.724-0.78s0.465-1.703,0.465-3.547v-6.356c0-1.673-0.159-2.755-0.482-3.24
		c-0.324-0.485-0.9-0.727-1.741-0.727c-0.817,0-1.377,0.266-1.688,0.798c-0.312,0.532-0.465,1.709-0.465,3.53V27.565L150.045,27.565
		z M145.499,24.621c0-2.17,0.671-4.015,2.006-5.534c1.342-1.52,2.93-2.276,4.765-2.276c0.817,0,1.618,0.189,2.395,0.562
		c0.782,0.378,1.487,0.911,2.123,1.603c0.735,0.798,1.276,1.655,1.629,2.584c0.348,0.922,0.524,1.969,0.524,3.133
		c0,2.206-0.653,4.063-1.965,5.575c-1.313,1.514-2.9,2.271-4.771,2.271c-1.842,0-3.418-0.763-4.735-2.294
		C146.158,28.712,145.499,26.838,145.499,24.621z"/>
	<path fill-rule="evenodd" clip-rule="evenodd" fill="#007BC2" d="M158.485,32.105v-0.538h1.553V17.78h-1.553v-0.538h1.947
		c0.782,0,1.487-0.036,2.111-0.106c0.629-0.065,1.218-0.178,1.765-0.325v3.051c0.418-0.946,0.977-1.691,1.682-2.235
		c0.706-0.544,1.477-0.816,2.3-0.816c0.912,0,1.612,0.242,2.112,0.721s0.753,1.135,0.753,1.981c0,0.727-0.218,1.324-0.653,1.786
		c-0.44,0.461-0.994,0.692-1.67,0.692c-0.671,0-1.224-0.231-1.665-0.686c-0.441-0.456-0.665-1.029-0.665-1.721
		c0-0.29,0.048-0.58,0.147-0.869c0.094-0.284,0.247-0.585,0.459-0.899c-0.817,0.195-1.477,0.716-1.977,1.549
		c-0.5,0.84-0.753,1.845-0.753,3.021v9.182h2.053v0.538H158.485z"/>
	<path fill-rule="evenodd" clip-rule="evenodd" fill="#007BC2" d="M65.276,45.57v-1.69c0-0.152-0.021-0.274-0.064-0.369
		c-0.044-0.093-0.114-0.184-0.211-0.271c-0.139-0.123-0.302-0.219-0.49-0.288c-0.188-0.07-0.379-0.104-0.572-0.104
		c-0.369,0-0.674,0.16-0.915,0.48c-0.239,0.319-0.359,0.735-0.359,1.247c0,0.544,0.157,1.011,0.471,1.403
		c0.313,0.391,0.681,0.587,1.103,0.587c0.312,0,0.562-0.092,0.752-0.272C65.183,46.111,65.276,45.87,65.276,45.57L65.276,45.57z
		 M65.276,46.282c-0.212,0.247-0.441,0.43-0.687,0.55c-0.248,0.119-0.521,0.18-0.824,0.18c-0.483,0-0.882-0.194-1.198-0.583
		c-0.318-0.388-0.476-0.877-0.476-1.465c0-0.654,0.203-1.211,0.608-1.67c0.406-0.459,0.885-0.689,1.439-0.689
		c0.193,0,0.386,0.032,0.577,0.097c0.191,0.064,0.382,0.159,0.572,0.281v-1.975c0-0.319-0.029-0.532-0.089-0.638
		c-0.059-0.104-0.168-0.157-0.326-0.157h-0.101c-0.071,0-0.127-0.012-0.167-0.037c-0.041-0.024-0.061-0.06-0.061-0.104
		c0-0.046,0.078-0.088,0.232-0.127h0.019c0.077-0.013,0.156-0.031,0.239-0.056c0.082-0.023,0.163-0.054,0.244-0.085
		c0.114-0.046,0.238-0.109,0.373-0.19c0.135-0.081,0.223-0.121,0.26-0.121c0.038,0,0.068,0.016,0.089,0.044
		c0.021,0.029,0.031,0.07,0.031,0.127c0,0.009-0.003,0.05-0.01,0.121c-0.028,0.472-0.043,0.972-0.043,1.499v4.422
		c0,0.343,0.028,0.56,0.084,0.654c0.056,0.094,0.16,0.141,0.312,0.141h0.083c0.054,0,0.099,0.01,0.131,0.031
		c0.035,0.021,0.053,0.052,0.056,0.09c0,0.081-0.109,0.134-0.328,0.16c-0.058,0.007-0.105,0.014-0.14,0.021
		c-0.175,0.026-0.346,0.063-0.519,0.114c-0.172,0.05-0.264,0.074-0.272,0.074c-0.037-0.003-0.063-0.02-0.081-0.051
		c-0.017-0.03-0.026-0.073-0.026-0.128V46.282L65.276,46.282z M67.716,45.769v-2.12c0-0.159-0.038-0.278-0.116-0.356
		c-0.077-0.079-0.196-0.119-0.357-0.119c-0.094,0-0.158-0.008-0.193-0.026c-0.037-0.019-0.054-0.048-0.054-0.09
		c0-0.039,0.015-0.069,0.041-0.089c0.028-0.021,0.094-0.042,0.196-0.062c0.02-0.007,0.044-0.014,0.077-0.02
		c0.155-0.038,0.28-0.08,0.376-0.121c0.097-0.042,0.216-0.102,0.357-0.176s0.231-0.111,0.266-0.111c0.039,0,0.066,0.014,0.081,0.042
		c0.013,0.026,0.021,0.093,0.021,0.195v0.656c0.26-0.315,0.46-0.522,0.596-0.625c0.137-0.101,0.271-0.152,0.402-0.152
		c0.152,0,0.295,0.053,0.43,0.161c0.135,0.105,0.203,0.21,0.203,0.31c0,0.078-0.042,0.165-0.125,0.262
		c-0.084,0.098-0.155,0.146-0.213,0.146c-0.029,0-0.11-0.04-0.246-0.121c-0.135-0.081-0.269-0.121-0.397-0.121
		c-0.169,0-0.323,0.078-0.458,0.236c-0.135,0.156-0.203,0.33-0.203,0.521v1.64c0,0.331,0.025,0.554,0.073,0.671
		c0.048,0.116,0.138,0.209,0.271,0.276c0.038,0.021,0.081,0.033,0.127,0.043c0.047,0.011,0.1,0.016,0.163,0.016
		c0.099,0.007,0.163,0.021,0.193,0.043c0.028,0.023,0.042,0.058,0.042,0.107c0,0.031-0.016,0.06-0.047,0.083
		C69.189,46.889,69.149,46.9,69.1,46.9c-0.021,0-0.139-0.009-0.346-0.024c-0.209-0.016-0.407-0.023-0.59-0.023
		c-0.267,0-0.524,0.015-0.773,0.043c-0.038,0.003-0.063,0.005-0.073,0.005c-0.031,0-0.06-0.01-0.081-0.031
		c-0.023-0.021-0.035-0.047-0.035-0.075c0-0.026,0.008-0.05,0.025-0.071c0.015-0.021,0.053-0.051,0.11-0.089
		c0.058-0.033,0.101-0.06,0.129-0.083s0.053-0.048,0.074-0.078c0.063-0.078,0.105-0.171,0.133-0.278
		C67.703,46.085,67.716,45.944,67.716,45.769L67.716,45.769z M71.196,44.099h1.356c0.328,0,0.534-0.015,0.614-0.043
		c0.083-0.029,0.124-0.084,0.124-0.165c0-0.275-0.107-0.519-0.323-0.729c-0.216-0.21-0.469-0.314-0.763-0.314
		c-0.277,0-0.504,0.111-0.684,0.333C71.343,43.401,71.234,43.708,71.196,44.099L71.196,44.099z M71.176,44.355
		c0,0.645,0.145,1.158,0.436,1.543c0.288,0.382,0.679,0.574,1.167,0.574c0.368,0,0.742-0.131,1.121-0.393
		c0.103-0.067,0.168-0.103,0.193-0.103c0.03,0,0.048,0.004,0.056,0.012s0.012,0.026,0.012,0.057c0,0.037-0.017,0.084-0.051,0.136
		c-0.033,0.051-0.089,0.112-0.167,0.184c-0.234,0.217-0.481,0.378-0.738,0.48c-0.257,0.104-0.537,0.155-0.84,0.155
		c-0.527,0-0.974-0.203-1.34-0.609c-0.364-0.405-0.547-0.902-0.547-1.491c0-0.627,0.185-1.169,0.556-1.623
		c0.369-0.456,0.807-0.683,1.313-0.683c0.292,0,0.556,0.058,0.786,0.174c0.232,0.118,0.437,0.292,0.613,0.525
		c0.117,0.146,0.205,0.293,0.265,0.445c0.061,0.152,0.093,0.295,0.093,0.428c0,0.074-0.017,0.124-0.048,0.15
		c-0.033,0.025-0.126,0.038-0.285,0.038H71.176L71.176,44.355z M77.482,44.705c-0.699,0.146-1.182,0.31-1.449,0.49
		c-0.267,0.181-0.4,0.425-0.4,0.729c0,0.235,0.064,0.419,0.193,0.55c0.128,0.131,0.31,0.197,0.541,0.197
		c0.319,0,0.585-0.083,0.798-0.251c0.212-0.167,0.318-0.377,0.318-0.634V44.705L77.482,44.705z M77.544,46.385
		c-0.223,0.207-0.461,0.359-0.719,0.459c-0.258,0.098-0.547,0.147-0.865,0.147c-0.311,0-0.55-0.081-0.715-0.245
		C75.083,46.582,75,46.346,75,46.035c0-0.399,0.181-0.714,0.544-0.944c0.361-0.231,1.007-0.436,1.938-0.609v-0.683
		c0-0.302-0.092-0.531-0.275-0.692c-0.183-0.16-0.447-0.24-0.791-0.24c-0.293,0-0.501,0.042-0.622,0.126
		c-0.12,0.085-0.181,0.228-0.181,0.428c0,0.084,0.014,0.182,0.037,0.291c0.024,0.109,0.036,0.178,0.036,0.199
		c0,0.046-0.021,0.083-0.066,0.112c-0.043,0.028-0.099,0.043-0.167,0.043c-0.128,0-0.237-0.034-0.328-0.104
		c-0.09-0.069-0.135-0.155-0.135-0.26c0-0.281,0.155-0.538,0.467-0.769c0.31-0.231,0.675-0.348,1.098-0.348
		c0.59,0,1.005,0.111,1.249,0.335c0.242,0.224,0.364,0.619,0.364,1.189v1.823c0,0.275,0.026,0.452,0.079,0.532
		c0.054,0.079,0.155,0.119,0.302,0.119c0.026,0,0.061-0.002,0.107-0.005c0.044-0.004,0.076-0.005,0.091-0.005
		c0.023,0,0.044,0.01,0.063,0.031c0.02,0.021,0.03,0.047,0.03,0.076c0,0.068-0.055,0.124-0.162,0.169
		c-0.109,0.045-0.246,0.067-0.414,0.067c-0.177,0-0.325-0.044-0.443-0.134C77.701,46.696,77.609,46.563,77.544,46.385L77.544,46.385
		z M79.868,45.769v-2.11c0-0.172-0.035-0.295-0.105-0.371s-0.188-0.114-0.35-0.114c-0.095,0-0.163-0.01-0.199-0.029
		c-0.038-0.019-0.056-0.049-0.056-0.087c0-0.039,0.014-0.069,0.038-0.089c0.026-0.021,0.087-0.042,0.185-0.062
		c0.017-0.004,0.041-0.01,0.077-0.02c0.148-0.038,0.272-0.08,0.371-0.121c0.094-0.042,0.213-0.102,0.357-0.176
		c0.145-0.074,0.238-0.111,0.275-0.111c0.036,0,0.063,0.014,0.078,0.042c0.016,0.026,0.025,0.093,0.025,0.195v0.588
		c0.226-0.24,0.443-0.417,0.654-0.533c0.211-0.118,0.417-0.176,0.62-0.176c0.253,0,0.487,0.076,0.697,0.229
		c0.211,0.152,0.368,0.357,0.466,0.616l0.188-0.174c0.264-0.254,0.488-0.428,0.669-0.525c0.182-0.098,0.368-0.146,0.557-0.146
		c0.203,0,0.396,0.052,0.58,0.155c0.183,0.104,0.333,0.247,0.448,0.433c0.101,0.157,0.172,0.347,0.214,0.563
		c0.044,0.215,0.066,0.571,0.066,1.066v0.966c0,0.272,0.02,0.456,0.058,0.549c0.04,0.094,0.112,0.174,0.223,0.238
		c0.038,0.023,0.081,0.04,0.127,0.052c0.048,0.012,0.101,0.017,0.162,0.017c0.084,0,0.142,0.012,0.174,0.033
		c0.032,0.022,0.048,0.063,0.048,0.117c0,0.035-0.015,0.063-0.043,0.085c-0.029,0.021-0.067,0.031-0.117,0.031
		c-0.021,0-0.129-0.009-0.32-0.024c-0.191-0.016-0.374-0.023-0.548-0.023c-0.254,0-0.497,0.015-0.729,0.043
		c-0.028,0.003-0.046,0.005-0.053,0.005c-0.031,0-0.059-0.012-0.084-0.035c-0.024-0.021-0.036-0.046-0.036-0.071
		c0-0.056,0.044-0.112,0.135-0.17c0.09-0.059,0.15-0.106,0.178-0.146c0.051-0.074,0.087-0.158,0.109-0.255
		c0.021-0.095,0.031-0.247,0.031-0.454v-1.114c0-0.594-0.071-1.011-0.214-1.256c-0.143-0.244-0.38-0.366-0.712-0.366
		c-0.3,0-0.536,0.091-0.71,0.271c-0.173,0.181-0.26,0.429-0.26,0.742v1.732c0,0.282,0.018,0.469,0.056,0.559
		c0.036,0.092,0.102,0.167,0.194,0.229c0.036,0.023,0.076,0.04,0.119,0.052s0.096,0.017,0.157,0.017c0.003,0,0.006,0,0.01,0
		c0.122,0.023,0.185,0.072,0.188,0.15c0,0.035-0.013,0.063-0.042,0.085c-0.026,0.021-0.063,0.031-0.108,0.031
		c-0.021,0-0.125-0.009-0.308-0.024c-0.183-0.016-0.354-0.023-0.511-0.023c-0.252,0-0.493,0.015-0.725,0.043
		c-0.031,0.003-0.051,0.005-0.058,0.005c-0.028,0-0.054-0.01-0.079-0.031s-0.036-0.047-0.036-0.075c0-0.056,0.044-0.112,0.135-0.17
		c0.09-0.059,0.15-0.108,0.178-0.151c0.051-0.071,0.087-0.153,0.109-0.25c0.021-0.095,0.031-0.247,0.031-0.454v-1.114
		c0-0.601-0.071-1.02-0.214-1.261c-0.144-0.24-0.383-0.361-0.717-0.361c-0.296,0-0.529,0.089-0.7,0.271
		c-0.17,0.179-0.255,0.427-0.255,0.743v1.732c0,0.269,0.02,0.454,0.058,0.554c0.04,0.101,0.112,0.183,0.217,0.243
		c0.051,0.022,0.124,0.042,0.218,0.059c0.003,0,0.008,0,0.015,0c0.084,0.007,0.138,0.021,0.165,0.043
		c0.024,0.023,0.038,0.058,0.038,0.107c0,0.038-0.012,0.068-0.036,0.086c-0.025,0.021-0.059,0.03-0.104,0.03
		c-0.03,0-0.135-0.009-0.316-0.024s-0.351-0.023-0.504-0.023c-0.262,0-0.511,0.015-0.75,0.043C79.525,46.898,79.5,46.9,79.491,46.9
		c-0.031,0-0.061-0.01-0.087-0.031c-0.024-0.021-0.038-0.047-0.038-0.075c0-0.032,0.01-0.062,0.029-0.086
		c0.018-0.023,0.055-0.048,0.105-0.074c0.01-0.007,0.026-0.017,0.048-0.03c0.071-0.051,0.122-0.094,0.15-0.131
		c0.064-0.078,0.108-0.162,0.133-0.257C79.857,46.122,79.868,45.975,79.868,45.769L79.868,45.769z M87.265,46.046l0.396-0.408
		c0.02-0.022,0.04-0.039,0.063-0.051c0.023-0.012,0.048-0.017,0.078-0.017c0.023,0,0.046,0.006,0.069,0.02
		c0.024,0.014,0.051,0.031,0.081,0.058l0.386,0.418c0.023,0.031,0.038,0.058,0.046,0.079c0.008,0.021,0.012,0.042,0.012,0.062
		c0,0.019-0.005,0.041-0.016,0.064c-0.012,0.025-0.028,0.054-0.051,0.086l-0.386,0.426c-0.036,0.033-0.064,0.059-0.087,0.073
		c-0.023,0.017-0.04,0.025-0.053,0.025c-0.026,0-0.049-0.005-0.071-0.016c-0.02-0.01-0.043-0.026-0.069-0.053l-0.425-0.49
		c-0.013-0.014-0.023-0.031-0.033-0.057c-0.01-0.023-0.015-0.046-0.015-0.069c0-0.02,0.007-0.041,0.02-0.066
		C87.22,46.106,87.238,46.078,87.265,46.046L87.265,46.046z M89.717,46.046l0.396-0.408c0.02-0.022,0.039-0.039,0.063-0.051
		s0.048-0.017,0.077-0.017c0.023,0,0.046,0.006,0.069,0.02c0.025,0.014,0.051,0.031,0.081,0.058l0.386,0.418
		c0.022,0.031,0.037,0.058,0.046,0.079c0.008,0.021,0.012,0.042,0.012,0.062c0,0.019-0.005,0.041-0.017,0.064
		c-0.012,0.025-0.028,0.054-0.052,0.086l-0.385,0.426c-0.036,0.033-0.064,0.059-0.088,0.073c-0.022,0.017-0.039,0.025-0.053,0.025
		c-0.026,0-0.049-0.005-0.07-0.016c-0.021-0.01-0.043-0.026-0.069-0.053l-0.426-0.49c-0.013-0.014-0.022-0.031-0.033-0.057
		c-0.01-0.023-0.015-0.046-0.015-0.069c0-0.02,0.007-0.041,0.021-0.066C89.672,46.106,89.691,46.078,89.717,46.046L89.717,46.046z
		 M92.169,46.046l0.396-0.408c0.02-0.022,0.039-0.039,0.063-0.051s0.048-0.017,0.077-0.017c0.023,0,0.046,0.006,0.069,0.02
		c0.025,0.014,0.051,0.031,0.081,0.058l0.386,0.418c0.023,0.031,0.038,0.058,0.046,0.079s0.012,0.042,0.012,0.062
		c0,0.019-0.005,0.041-0.017,0.064c-0.012,0.025-0.027,0.054-0.051,0.086l-0.386,0.426c-0.036,0.033-0.064,0.059-0.088,0.073
		c-0.022,0.017-0.039,0.025-0.053,0.025c-0.026,0-0.049-0.005-0.07-0.016c-0.02-0.01-0.043-0.026-0.069-0.053l-0.425-0.49
		c-0.014-0.014-0.023-0.031-0.033-0.057c-0.01-0.023-0.015-0.046-0.015-0.069c0-0.02,0.006-0.041,0.02-0.066
		C92.125,46.106,92.143,46.078,92.169,46.046L92.169,46.046z M94.969,44.099h1.356c0.328,0,0.534-0.015,0.615-0.043
		c0.082-0.029,0.123-0.084,0.123-0.165c0-0.275-0.107-0.519-0.323-0.729c-0.216-0.21-0.47-0.314-0.763-0.314
		c-0.277,0-0.505,0.111-0.684,0.333S95.007,43.708,94.969,44.099L94.969,44.099z M94.95,44.355c0,0.645,0.145,1.158,0.435,1.543
		c0.289,0.382,0.68,0.574,1.167,0.574c0.368,0,0.742-0.131,1.121-0.393c0.102-0.067,0.168-0.103,0.192-0.103
		c0.03,0,0.048,0.004,0.057,0.012c0.008,0.008,0.011,0.026,0.011,0.057c0,0.037-0.016,0.084-0.051,0.136
		c-0.033,0.051-0.089,0.112-0.166,0.184c-0.234,0.217-0.481,0.378-0.738,0.48c-0.258,0.104-0.537,0.155-0.841,0.155
		c-0.527,0-0.974-0.203-1.34-0.609c-0.364-0.405-0.547-0.902-0.547-1.491c0-0.627,0.185-1.169,0.555-1.623
		c0.369-0.456,0.808-0.683,1.313-0.683c0.292,0,0.556,0.058,0.786,0.174c0.232,0.118,0.438,0.292,0.613,0.525
		c0.117,0.146,0.205,0.293,0.266,0.445s0.093,0.295,0.093,0.428c0,0.074-0.018,0.124-0.049,0.15
		c-0.032,0.025-0.127,0.038-0.284,0.038H94.95L94.95,44.355z M99.188,45.769v-2.096c0-0.179-0.034-0.306-0.104-0.384
		c-0.071-0.078-0.188-0.116-0.35-0.116c-0.096,0-0.163-0.01-0.2-0.029c-0.037-0.019-0.056-0.049-0.056-0.087
		c0-0.045,0.014-0.077,0.041-0.099c0.028-0.022,0.084-0.035,0.172-0.042c0.01,0,0.02-0.002,0.029-0.005
		c0.064-0.014,0.11-0.024,0.141-0.033c0.195-0.069,0.39-0.15,0.586-0.247c0.194-0.094,0.304-0.143,0.327-0.143
		c0.041,0,0.07,0.016,0.085,0.044c0.017,0.029,0.025,0.091,0.025,0.184v0.588c0.26-0.24,0.511-0.417,0.751-0.533
		c0.239-0.118,0.473-0.176,0.702-0.176c0.23,0,0.45,0.052,0.655,0.155c0.207,0.104,0.376,0.247,0.508,0.433
		c0.116,0.157,0.198,0.348,0.246,0.57c0.048,0.222,0.072,0.574,0.072,1.06v0.966c0,0.272,0.021,0.456,0.062,0.549
		c0.039,0.094,0.113,0.174,0.219,0.238c0.04,0.023,0.083,0.04,0.13,0.052c0.05,0.012,0.104,0.017,0.165,0.017
		c0.078,0,0.132,0.012,0.162,0.033c0.031,0.022,0.046,0.063,0.046,0.117c0,0.035-0.014,0.063-0.041,0.085s-0.063,0.031-0.109,0.031
		c-0.02,0-0.127-0.009-0.322-0.024c-0.197-0.016-0.383-0.023-0.556-0.023c-0.254,0-0.496,0.015-0.724,0.043
		c-0.033,0.003-0.053,0.005-0.06,0.005c-0.028,0-0.055-0.01-0.076-0.031c-0.022-0.021-0.034-0.047-0.034-0.075
		c0-0.053,0.043-0.107,0.13-0.169c0.088-0.06,0.146-0.109,0.179-0.152c0.051-0.064,0.087-0.144,0.108-0.24
		c0.021-0.095,0.031-0.25,0.031-0.464v-1.114c0-0.604-0.084-1.024-0.254-1.263c-0.168-0.24-0.451-0.359-0.847-0.359
		c-0.361,0-0.642,0.089-0.843,0.267c-0.2,0.179-0.301,0.428-0.301,0.747v1.732c0,0.268,0.022,0.449,0.067,0.549
		c0.044,0.102,0.13,0.184,0.255,0.248c0.036,0.021,0.078,0.033,0.127,0.043c0.048,0.011,0.103,0.016,0.163,0.016
		c0.101,0.007,0.165,0.021,0.195,0.043c0.027,0.023,0.042,0.058,0.042,0.107c0,0.035-0.015,0.063-0.042,0.085
		c-0.03,0.021-0.068,0.031-0.117,0.031c-0.021,0-0.137-0.009-0.345-0.024s-0.404-0.023-0.589-0.023c-0.26,0-0.512,0.015-0.758,0.043
		c-0.038,0.003-0.063,0.005-0.072,0.005c-0.031,0-0.062-0.01-0.088-0.031c-0.024-0.021-0.037-0.047-0.037-0.075
		c0-0.032,0.01-0.062,0.029-0.086c0.019-0.023,0.055-0.048,0.105-0.074c0.01-0.007,0.026-0.017,0.048-0.03
		c0.071-0.051,0.122-0.094,0.15-0.131c0.064-0.078,0.108-0.162,0.133-0.257C99.177,46.122,99.188,45.975,99.188,45.769
		L99.188,45.769z M107.15,45.57v-1.69c0-0.152-0.021-0.274-0.064-0.369c-0.044-0.093-0.113-0.184-0.211-0.271
		c-0.138-0.123-0.301-0.219-0.489-0.288c-0.188-0.07-0.379-0.104-0.571-0.104c-0.369,0-0.675,0.16-0.915,0.48
		c-0.239,0.319-0.359,0.735-0.359,1.247c0,0.544,0.156,1.011,0.472,1.403c0.313,0.391,0.681,0.587,1.103,0.587
		c0.312,0,0.562-0.092,0.751-0.272C107.056,46.111,107.15,45.87,107.15,45.57L107.15,45.57z M107.15,46.282
		c-0.213,0.247-0.441,0.43-0.688,0.55c-0.247,0.119-0.521,0.18-0.823,0.18c-0.483,0-0.882-0.194-1.198-0.583
		c-0.318-0.388-0.477-0.877-0.477-1.465c0-0.654,0.203-1.211,0.608-1.67s0.885-0.689,1.438-0.689c0.192,0,0.386,0.032,0.577,0.097
		s0.382,0.159,0.571,0.281v-1.975c0-0.319-0.029-0.532-0.089-0.638c-0.06-0.104-0.168-0.157-0.326-0.157h-0.101
		c-0.07,0-0.127-0.012-0.166-0.037c-0.041-0.024-0.062-0.06-0.062-0.104c0-0.046,0.077-0.088,0.232-0.127h0.019
		c0.077-0.013,0.156-0.031,0.239-0.056c0.082-0.023,0.162-0.054,0.243-0.085c0.114-0.046,0.237-0.109,0.373-0.19
		c0.135-0.081,0.222-0.121,0.26-0.121s0.068,0.016,0.089,0.044c0.021,0.029,0.032,0.07,0.032,0.127c0,0.009-0.004,0.05-0.011,0.121
		c-0.027,0.472-0.042,0.972-0.042,1.499v4.422c0,0.343,0.027,0.56,0.084,0.654c0.056,0.094,0.159,0.141,0.312,0.141h0.082
		c0.054,0,0.099,0.01,0.132,0.031c0.034,0.021,0.053,0.052,0.056,0.09c0,0.081-0.108,0.134-0.328,0.16
		c-0.057,0.007-0.105,0.014-0.14,0.021c-0.175,0.026-0.346,0.063-0.52,0.114c-0.171,0.05-0.264,0.074-0.271,0.074
		c-0.036-0.003-0.063-0.02-0.081-0.051c-0.017-0.03-0.026-0.073-0.026-0.128V46.282L107.15,46.282z M109.729,44.099h1.356
		c0.328,0,0.534-0.015,0.615-0.043c0.082-0.029,0.123-0.084,0.123-0.165c0-0.275-0.106-0.519-0.322-0.729
		c-0.217-0.21-0.471-0.314-0.764-0.314c-0.277,0-0.504,0.111-0.684,0.333C109.875,43.401,109.767,43.708,109.729,44.099
		L109.729,44.099z M109.709,44.355c0,0.645,0.145,1.158,0.436,1.543c0.288,0.382,0.679,0.574,1.166,0.574
		c0.368,0,0.742-0.131,1.121-0.393c0.103-0.067,0.168-0.103,0.192-0.103c0.03,0,0.048,0.004,0.057,0.012
		c0.008,0.008,0.011,0.026,0.011,0.057c0,0.037-0.016,0.084-0.051,0.136c-0.032,0.051-0.089,0.112-0.166,0.184
		c-0.234,0.217-0.481,0.378-0.738,0.48c-0.258,0.104-0.537,0.155-0.841,0.155c-0.527,0-0.974-0.203-1.34-0.609
		c-0.364-0.405-0.547-0.902-0.547-1.491c0-0.627,0.185-1.169,0.555-1.623c0.369-0.456,0.809-0.683,1.313-0.683
		c0.292,0,0.556,0.058,0.787,0.174c0.231,0.118,0.437,0.292,0.612,0.525c0.117,0.146,0.205,0.293,0.266,0.445
		c0.062,0.152,0.093,0.295,0.093,0.428c0,0.074-0.017,0.124-0.049,0.15c-0.032,0.025-0.126,0.038-0.284,0.038H109.709
		L109.709,44.355z M116.015,44.705c-0.699,0.146-1.182,0.31-1.449,0.49c-0.267,0.181-0.4,0.425-0.4,0.729
		c0,0.235,0.064,0.419,0.193,0.55c0.128,0.131,0.31,0.197,0.54,0.197c0.32,0,0.585-0.083,0.798-0.251
		c0.213-0.167,0.318-0.377,0.318-0.634V44.705L116.015,44.705z M116.078,46.385c-0.223,0.207-0.462,0.359-0.719,0.459
		c-0.259,0.098-0.547,0.147-0.865,0.147c-0.312,0-0.551-0.081-0.715-0.245c-0.163-0.164-0.246-0.4-0.246-0.711
		c0-0.399,0.182-0.714,0.544-0.944c0.361-0.231,1.007-0.436,1.938-0.609v-0.683c0-0.302-0.093-0.531-0.275-0.692
		c-0.183-0.16-0.446-0.24-0.791-0.24c-0.294,0-0.501,0.042-0.621,0.126c-0.121,0.085-0.182,0.228-0.182,0.428
		c0,0.084,0.014,0.182,0.036,0.291c0.024,0.109,0.036,0.178,0.036,0.199c0,0.046-0.021,0.083-0.065,0.112
		c-0.043,0.028-0.1,0.043-0.167,0.043c-0.128,0-0.237-0.034-0.328-0.104c-0.09-0.069-0.135-0.155-0.135-0.26
		c0-0.281,0.155-0.538,0.467-0.769c0.31-0.231,0.676-0.348,1.098-0.348c0.59,0,1.005,0.111,1.249,0.335
		c0.242,0.224,0.364,0.619,0.364,1.189v1.823c0,0.275,0.026,0.452,0.079,0.532c0.055,0.079,0.154,0.119,0.302,0.119
		c0.026,0,0.061-0.002,0.106-0.005c0.045-0.004,0.076-0.005,0.091-0.005c0.023,0,0.045,0.01,0.063,0.031
		c0.02,0.021,0.029,0.047,0.029,0.076c0,0.068-0.054,0.124-0.161,0.169c-0.108,0.045-0.245,0.067-0.413,0.067
		c-0.177,0-0.325-0.044-0.443-0.134C116.234,46.696,116.142,46.563,116.078,46.385z"/>
	<path fill-rule="evenodd" clip-rule="evenodd" fill="#007BC2" d="M119.664,46.798l-1.342-3.229c-0.07-0.164-0.138-0.288-0.2-0.372
		c-0.063-0.085-0.136-0.149-0.22-0.194c-0.023-0.013-0.063-0.029-0.12-0.05c-0.094-0.027-0.141-0.072-0.141-0.131
		c0-0.034,0.015-0.063,0.043-0.084c0.03-0.021,0.069-0.031,0.122-0.031c0.031,0,0.094,0.006,0.185,0.018
		c0.093,0.014,0.168,0.021,0.229,0.021c0.197,0,0.42-0.007,0.669-0.021c0.249-0.012,0.4-0.018,0.451-0.018
		c0.071,0,0.117,0.006,0.137,0.021c0.021,0.015,0.031,0.043,0.031,0.084c0,0.071-0.087,0.121-0.265,0.146
		c-0.017,0.003-0.024,0.005-0.028,0.005c-0.077,0.017-0.137,0.048-0.18,0.093c-0.041,0.044-0.063,0.099-0.063,0.165
		c0,0.021,0.003,0.045,0.008,0.068c0.006,0.021,0.012,0.05,0.021,0.081l1.019,2.524c0.014,0.026,0.023,0.042,0.03,0.048
		c0.005,0.007,0.015,0.012,0.027,0.016c0.011,0,0.021-0.005,0.036-0.017s0.026-0.026,0.037-0.047l0.748-1.632
		c0.084-0.18,0.146-0.348,0.189-0.502c0.041-0.154,0.063-0.296,0.063-0.429c0-0.112-0.023-0.195-0.065-0.247
		c-0.044-0.053-0.129-0.093-0.254-0.122c-0.019-0.004-0.047-0.009-0.083-0.016c-0.128-0.015-0.192-0.058-0.192-0.126
		c0-0.041,0.011-0.071,0.034-0.089c0.021-0.019,0.06-0.026,0.11-0.026c0.04,0,0.134,0.006,0.285,0.018
		c0.151,0.014,0.285,0.021,0.4,0.021c0.104,0,0.223-0.007,0.358-0.021c0.135-0.012,0.221-0.018,0.255-0.018
		c0.053,0,0.091,0.012,0.119,0.034c0.027,0.021,0.041,0.058,0.041,0.106c-0.004,0.055-0.041,0.091-0.115,0.105
		c-0.043,0.011-0.076,0.021-0.103,0.03c-0.055,0.02-0.102,0.053-0.146,0.103c-0.04,0.048-0.095,0.141-0.163,0.277l-1.613,3.44
		c-0.032,0.071-0.061,0.117-0.087,0.143c-0.025,0.024-0.057,0.036-0.091,0.036c-0.072,0-0.127-0.048-0.165-0.146
		C119.675,46.822,119.67,46.81,119.664,46.798L119.664,46.798z M122.59,44.813c0-0.621,0.216-1.151,0.649-1.59
		c0.434-0.439,0.959-0.658,1.577-0.658c0.615,0,1.117,0.204,1.508,0.61c0.391,0.405,0.587,0.929,0.587,1.57
		c0,0.64-0.213,1.18-0.64,1.618c-0.427,0.439-0.95,0.658-1.572,0.658c-0.611,0-1.115-0.207-1.513-0.621
		C122.791,45.986,122.59,45.456,122.59,44.813L122.59,44.813z M123.287,44.545c0,0.661,0.145,1.2,0.435,1.62
		c0.288,0.419,0.657,0.628,1.104,0.628c0.438,0,0.777-0.158,1.021-0.471c0.242-0.315,0.364-0.754,0.364-1.32
		c0-0.648-0.144-1.182-0.432-1.601c-0.289-0.419-0.647-0.628-1.08-0.628c-0.43,0-0.774,0.159-1.029,0.479
		C123.415,43.57,123.287,44.001,123.287,44.545L123.287,44.545z M128.1,45.769v-2.12c0-0.159-0.038-0.278-0.115-0.356
		c-0.078-0.079-0.196-0.119-0.357-0.119c-0.095,0-0.158-0.008-0.193-0.026c-0.036-0.019-0.054-0.048-0.054-0.09
		c0-0.039,0.015-0.069,0.041-0.089c0.027-0.021,0.094-0.042,0.195-0.062c0.021-0.007,0.045-0.014,0.078-0.02
		c0.155-0.038,0.28-0.08,0.376-0.121c0.097-0.042,0.216-0.102,0.357-0.176s0.23-0.111,0.266-0.111c0.039,0,0.065,0.014,0.08,0.042
		c0.014,0.026,0.021,0.093,0.021,0.195v0.656c0.261-0.315,0.46-0.522,0.597-0.625c0.137-0.101,0.271-0.152,0.402-0.152
		c0.151,0,0.295,0.053,0.43,0.161c0.136,0.105,0.203,0.21,0.203,0.31c0,0.078-0.041,0.165-0.125,0.262
		c-0.084,0.098-0.155,0.146-0.213,0.146c-0.03,0-0.11-0.04-0.246-0.121c-0.135-0.081-0.269-0.121-0.396-0.121
		c-0.17,0-0.323,0.078-0.458,0.236c-0.136,0.156-0.203,0.33-0.203,0.521v1.64c0,0.331,0.024,0.554,0.072,0.671
		c0.048,0.116,0.139,0.209,0.271,0.276c0.038,0.021,0.081,0.033,0.127,0.043c0.048,0.011,0.101,0.016,0.163,0.016
		c0.099,0.007,0.163,0.021,0.192,0.043c0.028,0.023,0.043,0.058,0.043,0.107c0,0.031-0.016,0.06-0.048,0.083
		c-0.032,0.021-0.072,0.033-0.121,0.033c-0.021,0-0.139-0.009-0.347-0.024c-0.209-0.016-0.407-0.023-0.59-0.023
		c-0.267,0-0.524,0.015-0.772,0.043c-0.038,0.003-0.063,0.005-0.073,0.005c-0.031,0-0.059-0.01-0.08-0.031
		c-0.023-0.021-0.035-0.047-0.035-0.075c0-0.026,0.009-0.05,0.024-0.071s0.054-0.051,0.111-0.089c0.058-0.033,0.1-0.06,0.128-0.083
		s0.053-0.048,0.074-0.078c0.063-0.078,0.105-0.171,0.134-0.278C128.086,46.085,128.1,45.944,128.1,45.769L128.1,45.769z
		 M130.238,46.046c-0.026,0.032-0.045,0.061-0.058,0.084c-0.014,0.025-0.02,0.047-0.02,0.066c0,0.023,0.004,0.046,0.015,0.069
		c0.01,0.025,0.02,0.043,0.032,0.057l0.426,0.49c0.026,0.026,0.049,0.043,0.069,0.053c0.021,0.011,0.044,0.016,0.07,0.016
		c0.014,0,0.03-0.009,0.053-0.025c0.023-0.015,0.052-0.04,0.088-0.073l0.386-0.426c0.022-0.032,0.039-0.061,0.051-0.086
		c0.012-0.023,0.017-0.046,0.017-0.064c0-0.02-0.004-0.04-0.012-0.062c-0.009-0.021-0.023-0.048-0.046-0.079l-0.386-0.418
		c-0.03-0.026-0.057-0.044-0.081-0.058c-0.023-0.014-0.046-0.02-0.069-0.02c-0.029,0-0.055,0.005-0.077,0.017
		c-0.023,0.012-0.043,0.028-0.063,0.051L130.238,46.046L130.238,46.046z M132.69,46.046l0.396-0.408
		c0.02-0.022,0.039-0.039,0.063-0.051s0.048-0.017,0.077-0.017c0.023,0,0.047,0.006,0.069,0.02c0.024,0.014,0.052,0.031,0.081,0.058
		l0.386,0.418c0.023,0.031,0.038,0.058,0.046,0.079s0.012,0.042,0.012,0.062c0,0.019-0.005,0.041-0.017,0.064
		c-0.012,0.025-0.028,0.054-0.051,0.086l-0.386,0.426c-0.036,0.033-0.064,0.059-0.088,0.073c-0.022,0.017-0.039,0.025-0.053,0.025
		c-0.026,0-0.049-0.005-0.07-0.016c-0.021-0.01-0.043-0.026-0.069-0.053l-0.425-0.49c-0.014-0.014-0.023-0.031-0.033-0.057
		c-0.01-0.023-0.016-0.046-0.016-0.069c0-0.02,0.007-0.041,0.021-0.066C132.645,46.106,132.664,46.078,132.69,46.046L132.69,46.046z
		 M135.142,46.046l0.396-0.408c0.02-0.022,0.039-0.039,0.063-0.051s0.048-0.017,0.077-0.017c0.023,0,0.047,0.006,0.07,0.02
		c0.024,0.014,0.051,0.031,0.08,0.058l0.386,0.418c0.023,0.031,0.038,0.058,0.046,0.079c0.009,0.021,0.012,0.042,0.012,0.062
		c0,0.019-0.005,0.041-0.017,0.064c-0.012,0.025-0.027,0.054-0.051,0.086l-0.386,0.426c-0.036,0.033-0.064,0.059-0.087,0.073
		c-0.023,0.017-0.04,0.025-0.054,0.025c-0.025,0-0.049-0.005-0.07-0.016c-0.02-0.01-0.043-0.026-0.069-0.053l-0.425-0.49
		c-0.014-0.014-0.023-0.031-0.033-0.057c-0.01-0.023-0.015-0.046-0.015-0.069c0-0.02,0.007-0.041,0.02-0.066
		C135.097,46.106,135.116,46.078,135.142,46.046L135.142,46.046z M139.839,44.705c-0.699,0.146-1.182,0.31-1.449,0.49
		c-0.267,0.181-0.4,0.425-0.4,0.729c0,0.235,0.064,0.419,0.193,0.55c0.128,0.131,0.31,0.197,0.54,0.197
		c0.32,0,0.585-0.083,0.798-0.251c0.213-0.167,0.318-0.377,0.318-0.634V44.705L139.839,44.705z M139.902,46.385
		c-0.223,0.207-0.462,0.359-0.719,0.459c-0.259,0.098-0.547,0.147-0.865,0.147c-0.312,0-0.551-0.081-0.715-0.245
		c-0.163-0.164-0.246-0.4-0.246-0.711c0-0.399,0.182-0.714,0.544-0.944c0.361-0.231,1.007-0.436,1.938-0.609v-0.683
		c0-0.302-0.093-0.531-0.275-0.692c-0.183-0.16-0.446-0.24-0.791-0.24c-0.293,0-0.501,0.042-0.621,0.126
		c-0.121,0.085-0.182,0.228-0.182,0.428c0,0.084,0.014,0.182,0.036,0.291c0.024,0.109,0.036,0.178,0.036,0.199
		c0,0.046-0.021,0.083-0.065,0.112c-0.043,0.028-0.1,0.043-0.167,0.043c-0.128,0-0.237-0.034-0.328-0.104
		c-0.09-0.069-0.135-0.155-0.135-0.26c0-0.281,0.155-0.538,0.467-0.769c0.31-0.231,0.676-0.348,1.098-0.348
		c0.59,0,1.005,0.111,1.249,0.335c0.242,0.224,0.364,0.619,0.364,1.189v1.823c0,0.275,0.026,0.452,0.079,0.532
		c0.054,0.079,0.155,0.119,0.302,0.119c0.026,0,0.061-0.002,0.106-0.005c0.045-0.004,0.076-0.005,0.091-0.005
		c0.023,0,0.045,0.01,0.063,0.031c0.02,0.021,0.028,0.047,0.028,0.076c0,0.068-0.054,0.124-0.161,0.169
		c-0.108,0.045-0.245,0.067-0.413,0.067c-0.177,0-0.325-0.044-0.443-0.134C140.058,46.696,139.966,46.563,139.902,46.385
		L139.902,46.385z M145.034,43.608c0,0.064-0.005,0.109-0.017,0.135c-0.012,0.024-0.027,0.036-0.051,0.036
		c-0.033,0-0.088-0.055-0.165-0.162c-0.075-0.109-0.146-0.194-0.211-0.255c-0.139-0.133-0.302-0.237-0.488-0.313
		c-0.188-0.076-0.377-0.114-0.569-0.114c-0.361,0-0.642,0.139-0.844,0.419c-0.203,0.28-0.305,0.667-0.305,1.163
		c0,0.59,0.149,1.062,0.447,1.42c0.301,0.357,0.697,0.536,1.193,0.536c0.354,0,0.683-0.094,0.987-0.285
		c0.305-0.188,0.463-0.283,0.477-0.283c0.012,0,0.021,0.005,0.027,0.017c0.007,0.012,0.011,0.027,0.011,0.047
		c0,0.048-0.035,0.115-0.105,0.203c-0.071,0.089-0.169,0.181-0.291,0.282c-0.229,0.19-0.464,0.329-0.706,0.417
		c-0.244,0.088-0.515,0.131-0.814,0.131c-0.561,0-1.023-0.2-1.388-0.601c-0.366-0.401-0.549-0.908-0.549-1.52
		c0-0.645,0.209-1.187,0.628-1.627c0.419-0.438,0.933-0.659,1.544-0.659c0.2,0,0.388,0.017,0.563,0.048
		c0.175,0.033,0.317,0.076,0.427,0.131c0.078,0.043,0.131,0.087,0.157,0.129c0.027,0.044,0.041,0.125,0.041,0.241v0.048V43.608
		L145.034,43.608z M146.573,45.769v-4.761c0-0.333-0.029-0.548-0.089-0.647c-0.06-0.098-0.168-0.147-0.326-0.147h-0.077
		c-0.058,0-0.104-0.012-0.137-0.035c-0.035-0.021-0.051-0.051-0.051-0.086c0-0.04,0.015-0.069,0.046-0.093
		c0.029-0.023,0.105-0.045,0.224-0.068c0.014-0.003,0.035-0.008,0.063-0.015c0.146-0.038,0.261-0.076,0.348-0.111
		c0.112-0.046,0.236-0.109,0.368-0.19c0.131-0.081,0.217-0.121,0.255-0.121c0.041,0,0.076,0.019,0.103,0.054
		c0.024,0.036,0.038,0.084,0.038,0.146c0,0.01-0.004,0.048-0.011,0.116c-0.037,0.464-0.058,0.956-0.058,1.476v2.02
		c0.261-0.24,0.511-0.417,0.752-0.533c0.239-0.118,0.473-0.176,0.702-0.176c0.23,0,0.45,0.052,0.655,0.155
		c0.207,0.104,0.377,0.247,0.508,0.433c0.119,0.161,0.203,0.356,0.254,0.587c0.05,0.23,0.074,0.578,0.074,1.043v0.966
		c0,0.282,0.02,0.469,0.058,0.559c0.04,0.092,0.11,0.167,0.213,0.229c0.039,0.023,0.082,0.04,0.128,0.052
		c0.047,0.012,0.103,0.017,0.167,0.017c0.081,0,0.137,0.012,0.17,0.033c0.031,0.022,0.048,0.063,0.048,0.117
		c0,0.035-0.014,0.063-0.041,0.085c-0.028,0.021-0.063,0.031-0.109,0.031c-0.02,0-0.127-0.009-0.323-0.024
		c-0.195-0.016-0.382-0.023-0.555-0.023c-0.254,0-0.498,0.015-0.73,0.043c-0.028,0.003-0.046,0.005-0.053,0.005
		c-0.027,0-0.055-0.01-0.079-0.031s-0.038-0.047-0.041-0.075c0-0.05,0.045-0.104,0.135-0.165c0.091-0.062,0.152-0.113,0.184-0.156
		c0.048-0.064,0.082-0.144,0.104-0.24c0.021-0.095,0.031-0.25,0.031-0.464v-1.114c0-0.601-0.084-1.02-0.254-1.261
		c-0.168-0.24-0.453-0.361-0.852-0.361c-0.359,0-0.642,0.089-0.843,0.267c-0.201,0.179-0.302,0.428-0.302,0.747v1.732
		c0,0.261,0.023,0.439,0.069,0.542c0.048,0.103,0.136,0.188,0.265,0.255c0.034,0.021,0.077,0.033,0.125,0.043
		c0.048,0.011,0.104,0.016,0.164,0.016c0.1,0.007,0.163,0.021,0.193,0.043c0.027,0.023,0.043,0.058,0.043,0.107
		c0,0.035-0.016,0.063-0.043,0.085c-0.03,0.021-0.067,0.031-0.117,0.031c-0.021,0-0.139-0.009-0.35-0.024s-0.408-0.023-0.592-0.023
		c-0.26,0-0.512,0.015-0.758,0.043c-0.038,0.003-0.063,0.005-0.072,0.005c-0.031,0-0.06-0.01-0.081-0.031
		c-0.022-0.021-0.034-0.047-0.034-0.075c0-0.032,0.01-0.062,0.029-0.086c0.019-0.023,0.055-0.048,0.105-0.074
		c0.014-0.01,0.033-0.025,0.058-0.043c0.062-0.047,0.105-0.085,0.13-0.118c0.063-0.078,0.106-0.162,0.133-0.257
		C146.56,46.122,146.573,45.975,146.573,45.769L146.573,45.769z M151.895,41.086c0-0.095,0.056-0.207,0.166-0.34
		s0.199-0.199,0.267-0.199c0.063,0,0.148,0.064,0.259,0.192s0.167,0.233,0.167,0.318c0,0.079-0.053,0.186-0.16,0.316
		c-0.105,0.131-0.201,0.197-0.283,0.197c-0.084,0-0.175-0.057-0.271-0.168C151.942,41.292,151.895,41.187,151.895,41.086
		L151.895,41.086z M151.942,45.771v-1.792c0-0.337-0.029-0.554-0.089-0.649c-0.06-0.099-0.171-0.146-0.336-0.146
		c-0.094,0-0.163-0.01-0.207-0.029c-0.045-0.019-0.068-0.048-0.068-0.087c0-0.064,0.079-0.119,0.237-0.16h0.009
		c0.074-0.014,0.147-0.031,0.221-0.053c0.072-0.023,0.146-0.053,0.224-0.088c0.095-0.038,0.211-0.097,0.353-0.173
		c0.143-0.076,0.236-0.114,0.281-0.114c0.041,0,0.07,0.01,0.087,0.03c0.017,0.019,0.022,0.063,0.022,0.131
		c0,0.013-0.001,0.063-0.003,0.15c-0.017,0.485-0.024,0.976-0.024,1.475v1.514c0,0.261,0.023,0.441,0.069,0.542
		c0.048,0.103,0.135,0.188,0.264,0.255c0.037,0.021,0.08,0.033,0.128,0.043c0.046,0.011,0.101,0.016,0.161,0.016
		c0.1,0.007,0.164,0.021,0.193,0.043c0.028,0.023,0.043,0.058,0.043,0.107c0,0.031-0.017,0.06-0.048,0.083
		c-0.033,0.021-0.072,0.033-0.122,0.033c-0.021,0-0.139-0.009-0.346-0.024c-0.21-0.016-0.407-0.023-0.591-0.023
		c-0.267,0-0.523,0.015-0.772,0.043c-0.038,0.003-0.063,0.005-0.072,0.005c-0.031,0-0.06-0.01-0.081-0.031
		c-0.023-0.021-0.034-0.047-0.034-0.075c0-0.032,0.01-0.062,0.029-0.086c0.019-0.023,0.055-0.048,0.105-0.074
		c0.01-0.007,0.026-0.017,0.048-0.03c0.071-0.051,0.124-0.094,0.155-0.131c0.061-0.078,0.104-0.162,0.128-0.257
		C151.931,46.122,151.942,45.975,151.942,45.771L151.942,45.771z M154.574,44.099h1.356c0.328,0,0.534-0.015,0.615-0.043
		c0.082-0.029,0.123-0.084,0.123-0.165c0-0.275-0.106-0.519-0.322-0.729c-0.216-0.21-0.47-0.314-0.764-0.314
		c-0.276,0-0.504,0.111-0.684,0.333C154.721,43.401,154.612,43.708,154.574,44.099L154.574,44.099z M154.554,44.355
		c0,0.645,0.146,1.158,0.436,1.543c0.288,0.382,0.679,0.574,1.167,0.574c0.367,0,0.741-0.131,1.12-0.393
		c0.103-0.067,0.168-0.103,0.192-0.103c0.03,0,0.048,0.004,0.057,0.012c0.008,0.008,0.012,0.026,0.012,0.057
		c0,0.037-0.017,0.084-0.052,0.136c-0.032,0.051-0.089,0.112-0.166,0.184c-0.234,0.217-0.481,0.378-0.738,0.48
		c-0.257,0.104-0.537,0.155-0.841,0.155c-0.527,0-0.974-0.203-1.34-0.609c-0.363-0.405-0.547-0.902-0.547-1.491
		c0-0.627,0.185-1.169,0.556-1.623c0.369-0.456,0.808-0.683,1.313-0.683c0.292,0,0.556,0.058,0.786,0.174
		c0.232,0.118,0.437,0.292,0.613,0.525c0.116,0.146,0.204,0.293,0.265,0.445c0.062,0.152,0.093,0.295,0.093,0.428
		c0,0.074-0.017,0.124-0.048,0.15c-0.033,0.025-0.127,0.038-0.285,0.038H154.554L154.554,44.355z M160.057,46.798l-1.342-3.229
		c-0.07-0.164-0.138-0.288-0.2-0.372c-0.063-0.085-0.136-0.149-0.22-0.194c-0.023-0.013-0.063-0.029-0.12-0.05
		c-0.094-0.027-0.141-0.072-0.141-0.131c0-0.034,0.015-0.063,0.043-0.084c0.03-0.021,0.069-0.031,0.122-0.031
		c0.031,0,0.094,0.006,0.185,0.018c0.093,0.014,0.168,0.021,0.229,0.021c0.198,0,0.42-0.007,0.669-0.021
		c0.249-0.012,0.4-0.018,0.451-0.018c0.071,0,0.117,0.006,0.137,0.021c0.021,0.015,0.031,0.043,0.031,0.084
		c0,0.071-0.087,0.121-0.265,0.146c-0.017,0.003-0.024,0.005-0.028,0.005c-0.077,0.017-0.137,0.048-0.18,0.093
		c-0.041,0.044-0.063,0.099-0.063,0.165c0,0.021,0.003,0.045,0.008,0.068c0.006,0.021,0.012,0.05,0.021,0.081l1.019,2.524
		c0.014,0.026,0.023,0.042,0.03,0.048c0.005,0.007,0.015,0.012,0.027,0.016c0.011,0,0.021-0.005,0.036-0.017
		c0.016-0.012,0.026-0.026,0.036-0.047l0.749-1.632c0.084-0.18,0.146-0.348,0.189-0.502c0.041-0.154,0.063-0.296,0.063-0.429
		c0-0.112-0.023-0.195-0.066-0.247c-0.043-0.053-0.128-0.093-0.254-0.122c-0.018-0.004-0.046-0.009-0.082-0.016
		c-0.128-0.015-0.192-0.058-0.192-0.126c0-0.041,0.011-0.071,0.034-0.089c0.021-0.019,0.06-0.026,0.11-0.026
		c0.04,0,0.134,0.006,0.285,0.018c0.151,0.014,0.285,0.021,0.4,0.021c0.104,0,0.223-0.007,0.358-0.021
		c0.135-0.012,0.221-0.018,0.255-0.018c0.053,0,0.091,0.012,0.118,0.034c0.028,0.021,0.042,0.058,0.042,0.106
		c-0.004,0.055-0.042,0.091-0.115,0.105c-0.043,0.011-0.076,0.021-0.103,0.03c-0.055,0.02-0.103,0.053-0.145,0.103
		c-0.041,0.048-0.096,0.141-0.164,0.277l-1.613,3.44c-0.032,0.071-0.061,0.117-0.087,0.143c-0.024,0.024-0.056,0.036-0.091,0.036
		c-0.072,0-0.127-0.048-0.165-0.146C160.069,46.822,160.064,46.81,160.057,46.798L160.057,46.798z M163.757,44.099h1.356
		c0.328,0,0.534-0.015,0.614-0.043c0.083-0.029,0.124-0.084,0.124-0.165c0-0.275-0.107-0.519-0.323-0.729
		c-0.216-0.21-0.47-0.314-0.763-0.314c-0.277,0-0.505,0.111-0.685,0.333C163.904,43.401,163.794,43.708,163.757,44.099
		L163.757,44.099z M163.738,44.355c0,0.645,0.145,1.158,0.435,1.543c0.288,0.382,0.679,0.574,1.167,0.574
		c0.367,0,0.741-0.131,1.121-0.393c0.102-0.067,0.167-0.103,0.192-0.103c0.029,0,0.048,0.004,0.056,0.012
		c0.009,0.008,0.012,0.026,0.012,0.057c0,0.037-0.017,0.084-0.051,0.136c-0.033,0.051-0.089,0.112-0.167,0.184
		c-0.233,0.217-0.48,0.378-0.738,0.48c-0.257,0.104-0.537,0.155-0.84,0.155c-0.527,0-0.975-0.203-1.34-0.609
		c-0.364-0.405-0.548-0.902-0.548-1.491c0-0.627,0.185-1.169,0.556-1.623c0.369-0.456,0.808-0.683,1.313-0.683
		c0.292,0,0.556,0.058,0.786,0.174c0.232,0.118,0.437,0.292,0.613,0.525c0.117,0.146,0.204,0.293,0.266,0.445
		c0.061,0.152,0.092,0.295,0.092,0.428c0,0.074-0.017,0.124-0.048,0.15c-0.033,0.025-0.127,0.038-0.285,0.038H163.738z"/>
	<rect x="61.837" y="35.71" fill="#929497" width="104.573" height="0.708"/>
	<path fill="#007BC2" d="M61.849,32.136v-0.535h1.475V9.128h-1.475V8.593h13.835v6.065h-0.462c-0.264-1.883-0.901-3.271-1.914-4.16
		c-1.007-0.888-2.452-1.335-4.325-1.335c-0.082,0-0.205,0.006-0.38,0.018c-0.17,0.012-0.298,0.018-0.392,0.018v10.507
		c0.059,0.012,0.129,0.018,0.222,0.023c0.094,0.006,0.21,0.012,0.363,0.012c1.129,0,1.99-0.341,2.569-1.018
		c0.585-0.677,0.919-1.729,1.012-3.153h0.428v9.119h-0.428c-0.082-1.494-0.433-2.594-1.053-3.306
		c-0.626-0.712-1.545-1.071-2.768-1.071H68.21v11.253c0.082,0.012,0.175,0.023,0.281,0.029c0.111,0.006,0.275,0.006,0.492,0.006
		c1.85,0,3.336-0.547,4.448-1.635c1.118-1.094,1.843-2.712,2.188-4.859h0.41v7.029H61.849z"/>
	<g>
		<path d="M173.352,10.293V6.485h1.681c0.338,0,0.595,0.034,0.77,0.103c0.176,0.068,0.316,0.188,0.422,0.361
			c0.104,0.174,0.156,0.365,0.156,0.575c0,0.271-0.086,0.498-0.261,0.683c-0.174,0.186-0.443,0.303-0.807,0.354
			c0.134,0.064,0.233,0.127,0.303,0.19c0.146,0.135,0.285,0.304,0.416,0.506l0.66,1.037h-0.631l-0.502-0.792
			c-0.146-0.228-0.267-0.404-0.362-0.524c-0.094-0.121-0.179-0.207-0.254-0.254c-0.075-0.048-0.15-0.082-0.229-0.102
			c-0.058-0.011-0.15-0.018-0.279-0.018h-0.582v1.691H173.352L173.352,10.293z M173.853,8.166h1.078
			c0.229,0,0.408-0.024,0.538-0.072c0.13-0.047,0.227-0.124,0.294-0.229c0.067-0.104,0.101-0.218,0.101-0.341
			c0-0.18-0.064-0.328-0.195-0.444c-0.13-0.116-0.334-0.174-0.616-0.174h-1.199V8.166z"/>
		<path d="M177.066,10.499h-1.118l-0.562-0.888c-0.153-0.236-0.265-0.398-0.351-0.507c-0.101-0.13-0.165-0.185-0.202-0.208
			c-0.059-0.039-0.113-0.063-0.17-0.078c-0.015-0.002-0.081-0.011-0.229-0.011h-0.376v1.691h-0.912v-4.22h1.886
			c0.367,0,0.644,0.038,0.845,0.117c0.217,0.084,0.393,0.234,0.521,0.446c0.125,0.207,0.188,0.436,0.188,0.682
			c0,0.323-0.107,0.601-0.317,0.824c-0.118,0.126-0.273,0.227-0.462,0.3c0.139,0.137,0.272,0.304,0.397,0.497L177.066,10.499z
			 M176.174,10.088h0.143l-0.458-0.721c-0.121-0.187-0.25-0.344-0.382-0.466c-0.038-0.035-0.094-0.072-0.167-0.111
			c0.017,0.019,0.032,0.04,0.049,0.061c0.094,0.118,0.212,0.29,0.373,0.539L176.174,10.088z M173.558,10.088h0.09V8.397h0.787
			c0.141,0,0.245,0.007,0.318,0.021c0.111,0.028,0.209,0.072,0.302,0.132c0.056,0.035,0.114,0.084,0.176,0.15l0.054-0.343
			c0.315-0.043,0.545-0.142,0.685-0.291c0.139-0.146,0.206-0.324,0.206-0.542c0-0.173-0.042-0.326-0.128-0.469
			c-0.081-0.133-0.186-0.224-0.319-0.276c-0.151-0.059-0.385-0.089-0.695-0.089h-1.475V10.088z M174.931,8.371h-1.283v-1.67h1.404
			c0.337,0,0.583,0.074,0.753,0.226c0.176,0.156,0.265,0.357,0.265,0.597c0,0.162-0.045,0.314-0.134,0.453
			c-0.092,0.143-0.226,0.248-0.396,0.311C175.387,8.344,175.188,8.371,174.931,8.371z M174.059,7.96h0.872
			c0.204,0,0.361-0.02,0.466-0.059c0.088-0.032,0.15-0.08,0.192-0.146c0.047-0.072,0.069-0.148,0.069-0.231
			c0-0.121-0.04-0.214-0.127-0.291c-0.09-0.081-0.251-0.122-0.479-0.122h-0.993V7.96z"/>
	</g>
	<path fill-rule="evenodd" clip-rule="evenodd" d="M174.887,4.554c2.215,0,4.023,1.808,4.023,4.025c0,2.215-1.809,4.023-4.023,4.023
		c-2.217,0-4.024-1.808-4.024-4.023C170.863,6.362,172.67,4.554,174.887,4.554L174.887,4.554z M174.887,5.188
		c-1.867,0-3.391,1.523-3.391,3.391c0,1.866,1.523,3.389,3.391,3.389c1.866,0,3.39-1.523,3.39-3.389
		C178.277,6.711,176.753,5.188,174.887,5.188z"/>
	<g>
		<path fill-rule="evenodd" clip-rule="evenodd" fill="#007BC2" d="M1.712,25.359L25.511,1.561c1.636-1.636,4.313-1.636,5.949,0
			l5.407,5.407c-1.612-1.245-3.954-1.129-5.43,0.347L13.331,25.421c-1.602,1.602-1.602,4.222,0,5.824l18.106,18.106
			c1.476,1.477,3.817,1.592,5.429,0.348l-5.407,5.407c-1.636,1.636-4.313,1.636-5.949,0L1.712,31.308
			C0.076,29.672,0.076,26.995,1.712,25.359z"/>
		<path fill-rule="evenodd" clip-rule="evenodd" fill="#929497" d="M24.178,24.434l12.125-12.125c1.619-1.619,4.268-1.619,5.886,0
			l13.082,13.082c1.619,1.619,1.619,4.268,0,5.886L42.189,44.358c-1.619,1.619-4.268,1.619-5.886,0L24.178,32.233h18.499
			c2.145,0,3.9-1.755,3.9-3.899v0c0-2.145-1.755-3.9-3.9-3.9H24.178z"/>
	</g>
</g>
</svg>
